<?xml version="1.0" encoding="utf-8"?>
<!-- Generator: Adobe Illustrator 19.0.0, SVG Export Plug-In . SVG Version: 6.00 Build 0)  -->
<svg version="1.1" id="Layer_1" xmlns="http://www.w3.org/2000/svg" xmlns:xlink="http://www.w3.org/1999/xlink" x="0px" y="0px"
	 viewBox="0 0 251 92.5" style="enable-background:new 0 0 251 92.5;" xml:space="preserve">
<style type="text/css">
	.st0{fill:#FFFFFF;}
</style>
<g id="XMLID_1_">
	<path id="XMLID_49_" class="st0" d="M32.8,84.9c-0.1,0.4-0.2,0.8-0.2,1.2c0,0.4,0,0.6,0.1,0.9c0.1,0.2,0.2,0.4,0.3,0.6
		c0.1,0.1,0.2,0.2,0.2,0.3c0.3,0.3,0.5,0.6,0.5,1c0,0.1,0,0.2-0.1,0.5c-0.1,0.4-0.4,0.8-0.8,0.9c-0.4,0.2-1.1,0.3-2,0.3H19.5
		c-0.7,0-1.2-0.1-1.6-0.3c-0.4-0.2-0.6-0.5-0.6-0.9c0-0.2,0-0.4,0.1-0.6c0.1-0.3,0.2-0.5,0.4-0.6c0.2-0.1,0.4-0.3,0.7-0.5
		c0.5-0.3,0.9-0.6,1.2-1c0.3-0.4,0.6-0.9,0.8-1.7l1.2-4.1h-7.5l-1.3,2.7c-0.5,1.2-0.8,2.1-0.8,2.8c0,0.4,0.1,0.7,0.2,0.9
		c0.1,0.2,0.3,0.5,0.6,0.7c0.2,0.3,0.4,0.5,0.5,0.6c0.1,0.2,0.1,0.4,0,0.7c-0.1,0.5-0.4,0.8-0.8,1c-0.4,0.2-1,0.3-1.9,0.3H3.8
		c-0.7,0-1.3-0.1-1.7-0.4c-0.4-0.3-0.6-0.6-0.6-1.1c0-0.5,0.2-0.9,0.6-1.2c0.4-0.3,0.9-0.6,1.7-1c1-0.5,1.7-1,2.3-1.4
		s1.1-1.1,1.5-1.9l8.5-17.7c1.3-2.8,2.9-4.7,4.6-6c1.8-1.2,4.1-1.8,7-1.8c3.3,0,5.8,0.7,7.6,2c1.8,1.3,2.7,3.2,2.7,5.5
		c0,1-0.2,2-0.5,3.1L32.8,84.9z M23.4,76l2.5-8.4c0.1-0.4,0.2-0.8,0.2-1.2c0-0.6-0.2-1.1-0.5-1.4c-0.3-0.3-0.8-0.5-1.4-0.5
		c-0.8,0-1.4,0.2-2,0.7c-0.5,0.4-1.1,1.2-1.6,2.4L16.7,76H23.4z"/>
	<path id="XMLID_52_" class="st0" d="M68.9,60.1c1.1-1.1,2.6-1.7,4.6-1.7c1.5,0,2.8,0.5,3.7,1.5c0.9,1,1.4,2.2,1.4,3.6
		c0,0.5-0.1,1-0.2,1.7c-0.4,1.4-1,2.4-1.9,3c-0.9,0.6-1.9,0.9-2.9,0.9c-0.5,0-1,0-1.5-0.1c-0.4-0.1-0.8-0.2-1.2-0.3L68,79.1
		c-1,3.8-2.7,6.7-5.1,8.7c-2.4,2-5.7,3-9.8,3c-3.8,0-6.7-0.7-8.8-2.2c-2.1-1.4-3.1-3.7-3.1-6.7c0-1.5,0.3-3.1,0.8-4.8l3.6-12.9
		c0.1-0.4,0.2-0.8,0.2-1.2c0-0.4-0.1-0.7-0.2-0.9c-0.1-0.2-0.3-0.5-0.5-0.8c-0.3-0.4-0.4-0.8-0.4-1c0-0.1,0-0.3,0.1-0.5
		c0.1-0.4,0.4-0.7,0.9-0.9c0.4-0.2,1.1-0.3,2-0.3h11.3c1.4,0,2.1,0.4,2.1,1.2c0,0.2,0,0.4,0,0.5c-0.1,0.3-0.2,0.5-0.4,0.7
		c-0.2,0.2-0.4,0.4-0.8,0.6c-0.5,0.3-0.9,0.6-1.2,1c-0.3,0.4-0.6,0.9-0.8,1.6l-4.2,14.7c-0.3,1.1-0.4,2-0.4,2.8
		c0,2.1,1.2,3.2,3.5,3.2c1.4,0,2.6-0.5,3.5-1.4c0.9-0.9,1.7-2.5,2.4-4.7l3.9-13.8C66.9,62.9,67.8,61.2,68.9,60.1z"/>
	<path id="XMLID_54_" class="st0" d="M116.9,60.7c0,0.4-0.1,1-0.3,1.7l-1.2,3.9c-0.4,1.2-0.8,2-1.3,2.5c-0.5,0.5-1.2,0.7-2.2,0.7
		c-0.8,0-1.4-0.2-1.8-0.6c-0.4-0.4-0.8-1.1-1.2-2l-0.8-2c-0.3-0.6-0.5-1-0.8-1.2c-0.3-0.2-0.7-0.3-1.3-0.3h-1.1l-6.1,21.5
		c-0.1,0.4-0.1,0.8-0.1,1.1c0,0.4,0.1,0.7,0.2,1c0.1,0.3,0.3,0.5,0.5,0.8c0.3,0.4,0.4,0.8,0.4,1.1c0,0.1,0,0.2-0.1,0.5
		c-0.2,0.4-0.5,0.7-0.9,0.9c-0.5,0.2-1.1,0.3-2,0.3H85.3c-0.7,0-1.2-0.1-1.6-0.3c-0.4-0.2-0.6-0.5-0.6-1c0-0.2,0-0.4,0.1-0.6
		c0.1-0.3,0.3-0.5,0.5-0.6c0.2-0.1,0.4-0.3,0.8-0.6c0.5-0.3,0.9-0.6,1.2-1c0.3-0.4,0.6-0.9,0.8-1.6l6-21.5h-1.1
		c-0.7,0-1.3,0.1-1.7,0.3c-0.4,0.2-0.9,0.6-1.4,1.2l-1.6,2c-0.7,0.9-1.4,1.5-2.1,1.9c-0.7,0.4-1.4,0.6-2.2,0.6
		c-0.7,0-1.3-0.2-1.7-0.6c-0.4-0.4-0.6-0.9-0.6-1.6c0-0.3,0-0.7,0.1-1.1l1.2-4.4c0.3-0.9,0.5-1.6,0.9-2c0.3-0.5,0.8-0.8,1.4-1
		c0.6-0.2,1.4-0.3,2.5-0.3h28C116,58.6,116.9,59.3,116.9,60.7z"/>
	<path id="XMLID_56_" class="st0" d="M145.1,60.7c2.3,1.9,3.4,4.6,3.4,8.2c0,1.7-0.3,3.5-0.8,5.5c-1,3.6-2.4,6.6-4.5,9.1
		c-2,2.5-4.4,4.4-7.2,5.7c-2.8,1.3-5.8,1.9-9.1,1.9c-4,0-7.1-1-9.4-2.9c-2.3-1.9-3.4-4.6-3.4-8.2c0-1.6,0.3-3.5,0.8-5.6
		c0.9-3.6,2.4-6.6,4.4-9c2-2.5,4.4-4.4,7.2-5.6c2.8-1.3,5.8-1.9,9.1-1.9C139.6,57.9,142.8,58.8,145.1,60.7z M132.1,63.7
		c-0.8,0.8-1.5,2-2.3,3.8c-0.8,1.7-1.6,4.2-2.4,7.3c-1.3,4.5-1.9,7.6-1.9,9.3c0,1,0.2,1.7,0.5,2.2c0.4,0.4,0.9,0.7,1.7,0.7
		c1,0,1.8-0.4,2.6-1.2c0.8-0.8,1.5-2,2.3-3.8c0.7-1.7,1.6-4.1,2.4-7.2c1.2-4.4,1.9-7.5,1.9-9.3c0-1-0.2-1.8-0.5-2.2
		c-0.4-0.4-0.9-0.7-1.6-0.7C133.8,62.6,132.9,62.9,132.1,63.7z"/>
	<path id="XMLID_59_" class="st0" d="M156.9,89.3c-2.1-1-3.8-2.5-5.1-4.4c-1.3-1.9-1.9-4.3-1.9-7c0-1.9,0.3-4,1-6.2
		c1.5-4.8,3.7-8.3,6.7-10.4c3-2.1,6.2-3.2,9.6-3.2c1.8,0,3.4,0.3,4.8,0.8c1.4,0.5,2.7,1.3,3.9,2.4l1.3-1c0.9-0.7,1.6-1.1,2.2-1.4
		c0.6-0.3,1.3-0.4,2-0.4c0.8,0,1.4,0.2,1.9,0.5c0.5,0.4,0.7,0.9,0.7,1.5c0,0.4-0.1,0.7-0.2,1.1l-2.7,7.5c-0.3,0.9-0.6,1.5-1,1.8
		c-0.4,0.4-1,0.5-1.8,0.5c-0.8,0-1.5-0.3-2-0.9c-0.5-0.6-1.1-1.6-1.8-3c-0.8-1.5-1.4-2.5-1.9-3s-1.2-0.7-2.1-0.7
		c-1.3,0-2.6,0.8-3.8,2.4c-1.2,1.6-2.3,4-3.3,7.3c-0.8,2.7-1.2,5-1.2,6.8c0,1.6,0.3,2.8,0.9,3.6c0.6,0.8,1.4,1.2,2.4,1.2
		c1.5,0,2.7-0.3,3.7-1c1-0.7,2-1.6,3-2.7c0.6-0.7,1.2-1.2,1.6-1.6c0.4-0.3,0.8-0.5,1.3-0.5c0.6,0,1.2,0.3,1.8,0.9
		c0.6,0.6,0.9,1.2,0.9,1.7c0,0.7-0.5,1.8-1.7,3.3c-1.2,1.5-2.8,2.8-4.8,4c-2.1,1.2-4.4,1.8-7,1.8C161.4,90.8,159,90.3,156.9,89.3z"
		/>
	<path id="XMLID_61_" class="st0" d="M207.6,84.9c-0.1,0.4-0.2,0.8-0.2,1.2c0,0.4,0,0.6,0.1,0.9c0.1,0.2,0.2,0.4,0.3,0.6
		c0.1,0.1,0.2,0.2,0.2,0.3c0.3,0.3,0.5,0.6,0.5,1c0,0.1,0,0.2-0.1,0.5c-0.1,0.4-0.4,0.8-0.8,0.9c-0.4,0.2-1.1,0.3-2,0.3h-11.4
		c-0.7,0-1.2-0.1-1.6-0.3c-0.4-0.2-0.6-0.5-0.6-0.9c0-0.2,0-0.4,0.1-0.6c0.1-0.3,0.2-0.5,0.4-0.6c0.2-0.1,0.4-0.3,0.7-0.5
		c0.5-0.3,0.9-0.6,1.2-1c0.3-0.4,0.6-0.9,0.8-1.7l1.2-4.1h-7.5l-1.3,2.7c-0.5,1.2-0.8,2.1-0.8,2.8c0,0.4,0.1,0.7,0.2,0.9
		c0.1,0.2,0.3,0.5,0.6,0.7c0.2,0.3,0.4,0.5,0.5,0.6c0.1,0.2,0.1,0.4,0,0.7c-0.1,0.5-0.4,0.8-0.8,1c-0.4,0.2-1,0.3-1.9,0.3h-7.2
		c-0.7,0-1.3-0.1-1.7-0.4c-0.4-0.3-0.6-0.6-0.6-1.1c0-0.5,0.2-0.9,0.6-1.2c0.4-0.3,0.9-0.6,1.7-1c1-0.5,1.7-1,2.3-1.4
		s1.1-1.1,1.5-1.9l8.5-17.7c1.3-2.8,2.9-4.7,4.6-6c1.8-1.2,4.1-1.8,7-1.8c3.3,0,5.8,0.7,7.6,2c1.8,1.3,2.7,3.2,2.7,5.5
		c0,1-0.2,2-0.5,3.1L207.6,84.9z M198.1,76l2.5-8.4c0.1-0.4,0.2-0.8,0.2-1.2c0-0.6-0.2-1.1-0.5-1.4c-0.3-0.3-0.8-0.5-1.4-0.5
		c-0.8,0-1.4,0.2-2,0.7c-0.5,0.4-1.1,1.2-1.6,2.4l-3.9,8.4H198.1z"/>
	<path id="XMLID_64_" class="st0" d="M245.5,72.7c-1.4,1-3.2,1.7-5.3,1.9c1.5,0.1,2.7,0.6,3.5,1.3c0.8,0.8,1.2,1.8,1.2,3
		c0,0.5-0.1,1.1-0.2,1.8l-0.5,2.4c-0.1,0.3-0.1,0.5-0.1,0.7c0,0.4,0.1,0.7,0.3,0.9c0.2,0.2,0.5,0.3,0.8,0.3c0.7,0,1.2,0.1,1.5,0.3
		c0.3,0.2,0.4,0.5,0.3,1.1c-0.1,0.7-0.5,1.5-1.2,2.2c-0.6,0.7-1.5,1.3-2.7,1.8c-1.2,0.5-2.6,0.7-4.2,0.7c-2.1,0-3.8-0.5-5-1.4
		c-1.2-0.9-1.9-2.3-1.9-4.1c0-0.7,0.1-1.4,0.3-2.2l0.8-3.1c0.1-0.4,0.2-0.8,0.2-1.3c0-0.7-0.2-1.3-0.7-1.6c-0.5-0.3-1.3-0.5-2.4-0.5
		h-1.8l-2.2,8c-0.1,0.2-0.1,0.4-0.1,0.7c0,0.4,0.1,0.8,0.3,1.2c0.2,0.3,0.5,0.7,0.9,1c0.3,0.2,0.5,0.4,0.7,0.6
		c0.2,0.2,0.2,0.4,0.2,0.6c0,0.5-0.3,0.9-0.8,1.2c-0.5,0.2-1.3,0.3-2.3,0.3h-12c-0.8,0-1.5-0.2-1.9-0.5c-0.4-0.3-0.6-0.7-0.4-1.3
		c0.1-0.3,0.2-0.5,0.4-0.7c0.2-0.2,0.4-0.4,0.8-0.6c0.5-0.3,1-0.7,1.3-1c0.3-0.4,0.6-0.9,0.8-1.6l5.9-20.7c0.1-0.4,0.2-0.8,0.2-1.2
		c0-0.4-0.1-0.6-0.2-0.9c-0.1-0.2-0.3-0.5-0.5-0.8c-0.3-0.4-0.4-0.8-0.4-1c0-0.1,0-0.3,0.1-0.5c0.1-0.4,0.4-0.7,0.8-0.9
		c0.4-0.2,1.1-0.3,2-0.3h16.1c2.2,0,4.1,0.3,5.8,1s2.9,1.6,3.8,2.8c0.9,1.2,1.3,2.5,1.3,4c0,0.7-0.1,1.3-0.3,2
		C247.9,70.2,246.9,71.6,245.5,72.7z M236.4,66.2c0-1.7-0.9-2.5-2.8-2.5h-2l-2.1,8.5h2c1.2,0,2.2-0.3,3-0.9c0.7-0.6,1.3-1.7,1.7-3.4
		C236.3,67.1,236.4,66.5,236.4,66.2z"/>
</g>
<g id="XMLID_5_">
	<g id="XMLID_6_">
		<path id="XMLID_7_" class="st0" d="M159.6,16.4c-0.3-0.4-0.8-0.6-1.3-0.6H152c-1.5-4.1-3.6-8.1-5.9-9.6c-7.9-5.2-29-5.2-36.9,0
			c-2.3,1.5-4.3,5.5-5.9,9.6h-6.3c-0.5,0-1,0.2-1.3,0.6c-0.3,0.4-0.4,0.9-0.3,1.4l0.9,4.5c0.2,0.8,0.8,1.3,1.6,1.3h1.9
			c-1.8,2.1-2.7,4.7-2.7,7.3c0,3.2,1.2,6.1,3.4,8.2c0,0,0,0,0.1,0.1v6.3c0,1.4,1.1,2.5,2.5,2.5h5.8c1.4,0,2.5-1.1,2.5-2.5v-2.5h32.4
			v2.5c0,1.4,1.1,2.5,2.5,2.5h5.8c1.4,0,2.5-1.1,2.5-2.5v-6.2c2.4-2.2,3.5-5.2,3.5-8.2c0-2.7-0.9-5.4-2.8-7.5h2
			c0.8,0,1.5-0.5,1.6-1.3l0.9-4.5C160,17.3,159.9,16.8,159.6,16.4z M112,10.3c6.3-4.2,25.1-4.2,31.5,0c1.2,0.8,2.8,4.1,4.3,8.1h-40
			C109.1,14.4,110.7,11.1,112,10.3z M104.5,31.5c0-2.7,2.2-4.9,4.9-4.9c2.7,0,4.9,2.2,4.9,4.9s-2.2,4.9-4.9,4.9
			C106.7,36.4,104.5,34.2,104.5,31.5z M146,36.4c-2.7,0-4.9-2.2-4.9-4.9s2.2-4.9,4.9-4.9c2.7,0,4.9,2.2,4.9,4.9S148.7,36.4,146,36.4
			z"/>
	</g>
</g>
</svg>
